<svg id="Layer_3" height="512" viewBox="0 0 64 64" width="512" xmlns="http://www.w3.org/2000/svg" data-name="Layer 3"><path d="m61.988 25.96c-.013-4.971-3.628-17.991-8.046-17.979s-7.967 13.05-7.954 18.019 3.605 8.991 8.024 8.98 7.988-4.05 7.976-9.02z" fill="#447b3b"/><path d="m53.942 7.981h-.027c-2.908 3.855-4.942 12.245-4.932 16.011.013 4.97 3.605 8.99 8.023 8.979a7.183 7.183 0 0 0 2.465-.447 9.516 9.516 0 0 0 2.517-6.566c-.013-4.969-3.628-17.989-8.046-17.977z" fill="#508c45"/><path d="m56.405 15.142-2.994 2.008a1 1 0 0 0 -.443.833l.018 7-2.4-1.794-1.2 1.6 3.606 2.691.04 15.5h2l-.063-24.465 2.55-1.71z" fill="#684d42"/><path d="m49.032 41.975h14v2h-14z" fill="#4a352d" transform="matrix(1 -.003 .003 1 -.126 .164)"/><path d="m1.003 55.994-.006-2 62.032-.037.006 2z" fill="#4a352d"/><path d="m40.058 53.017a10 10 0 1 1 9.974-10.026 10.013 10.013 0 0 1 -9.974 10.026zm-.046-18a8 8 0 1 0 8.02 7.983 8.01 8.01 0 0 0 -8.02-7.983z" fill="#747574"/><path d="m11 53a10 10 0 1 1 10-10 10.011 10.011 0 0 1 -10 10zm0-18a8 8 0 1 0 8 8 8.009 8.009 0 0 0 -8-8z" fill="#747574"/><path d="m19 24a4 4 0 0 1 4 4 0 0 0 0 1 0 0h-8a0 0 0 0 1 0 0 4 4 0 0 1 4-4z" fill="#a82e25"/><path d="m32.388 27h4.112a1.5 1.5 0 0 1 0 3h-.5v2h.5a3.5 3.5 0 0 0 0-7h-5.5a1 1 0 0 0 -.948 1.316l1.561 4.684h-11.613v-3h-2v3.675l-6.634 9.125 1.617 1.177 5.779-7.946 3.161 7.588 1.846-.769-3.269-7.85h9.632l-5.3 7.95 1.668 1.109 6-8.995 5.591 8.786 1.688-1.074-5.862-9.211z" fill="#c33e37"/><path d="m17 11a2.969 2.969 0 0 0 -1.019.19c0-.065.019-.125.019-.19a5 5 0 0 0 -10 0c0 .061.016.118.018.178a2.993 2.993 0 1 0 3.427 4.551 4.8 4.8 0 0 0 4.7-.868 2.994 2.994 0 1 0 2.855-3.861z" fill="#37c"/><path d="m19.242 12.024a2.926 2.926 0 0 0 -3.261-.834c0-.065.019-.125.019-.19a4.969 4.969 0 0 0 -1.851-3.855 4.958 4.958 0 0 0 -6.149 4.855c0 .061.016.118.018.178a2.973 2.973 0 0 0 -1.26 4.8c.082.006.159.024.242.024a2.99 2.99 0 0 0 2.445-1.271 4.8 4.8 0 0 0 4.7-.868 3.02 3.02 0 0 0 1.116 1.568 2.945 2.945 0 0 0 1.513.552c.077.006.152.019.23.019a2.987 2.987 0 0 0 2.242-4.976z" fill="#3e88de"/><g fill="#414241"><path d="m40 40a3 3 0 1 0 3 3 3 3 0 0 0 -3-3zm0 4a1 1 0 1 1 1-1 1 1 0 0 1 -1 1z"/><path d="m24 40a3.993 3.993 0 0 0 -3.767 2.707l-6.349-.488a2.989 2.989 0 1 0 -.146 1.995l6.333.487a4 4 0 1 0 3.929-4.701zm-13 4a1 1 0 1 1 1-1 1 1 0 0 1 -1 1zm13 2a2 2 0 1 1 2-2 2 2 0 0 1 -2 2z"/></g></svg>