<?xml version="1.0" encoding="iso-8859-1"?>
<!-- Generator: Adobe Illustrator 19.0.0, SVG Export Plug-In . SVG Version: 6.00 Build 0)  -->
<svg version="1.1" id="Capa_1" xmlns="http://www.w3.org/2000/svg" xmlns:xlink="http://www.w3.org/1999/xlink" x="0px" y="0px"
	 viewBox="0 0 496.832 496.832" style="enable-background:new 0 0 496.832 496.832;" xml:space="preserve">
<rect x="40.416" y="136.832" style="fill:#ECECEC;" width="416" height="144"/>
<g>
	<rect x="40.416" y="136.832" style="fill:#B6C1CE;" width="416" height="40"/>
	<rect x="40.416" y="240.832" style="fill:#B6C1CE;" width="416" height="40"/>
</g>
<rect x="72.416" y="280.832" style="fill:#8C95A4;" width="352" height="208"/>
<rect x="80.416" y="296.832" style="fill:#798699;" width="336" height="24"/>
<rect x="400.416" y="312.832" style="fill:#ECECEC;" width="48" height="160"/>
<g>
	<rect x="400.416" y="312.832" style="fill:#B6C1CE;" width="48" height="40"/>
	<rect x="400.416" y="432.832" style="fill:#B6C1CE;" width="48" height="40"/>
</g>
<rect x="48.416" y="312.832" style="fill:#ECECEC;" width="48" height="160"/>
<g>
	<rect x="48.416" y="312.832" style="fill:#B6C1CE;" width="48" height="40"/>
	<rect x="48.416" y="432.832" style="fill:#B6C1CE;" width="48" height="40"/>
</g>
<rect x="72.416" y="464.832" style="fill:#798699;" width="352" height="24"/>
<polygon style="fill:#D3A06C;" points="488.416,120.832 488.416,152.832 8.416,152.832 8.416,120.832 248.416,8.832 248.416,8.832 
	"/>
<rect x="8.416" y="120.832" style="fill:#B27946;" width="480" height="32"/>
<g>
	<polygon style="fill:#D3A06C;" points="32.416,328.832 112.416,328.832 120.416,296.832 24.416,296.832 	"/>
	<polygon style="fill:#D3A06C;" points="376.424,296.832 384.424,328.832 464.416,328.832 472.416,296.832 	"/>
	<polygon style="fill:#D3A06C;" points="32.416,456.832 24.416,488.832 120.408,488.832 112.408,456.832 	"/>
	<polygon style="fill:#D3A06C;" points="464.416,456.832 384.416,456.832 376.416,488.832 472.416,488.832 	"/>
</g>
<polygon style="fill:#EABD8C;" points="276.416,152.832 304.416,104.832 276.416,56.832 220.416,56.832 192.416,104.832 
	220.416,152.832 "/>
<rect x="8.416" y="264.832" style="fill:#ECECEC;" width="480" height="32"/>
<g>
	<rect x="168.416" y="184.832" style="fill:#D3A06C;" width="64" height="48"/>
	<rect x="264.416" y="184.832" style="fill:#D3A06C;" width="64" height="48"/>
	<rect x="72.416" y="184.832" style="fill:#D3A06C;" width="64" height="48"/>
	<rect x="360.416" y="184.832" style="fill:#D3A06C;" width="64" height="48"/>
</g>
<path style="fill:#EABD8C;" d="M280.416,328.832h-64c-26.512,0-48,21.488-48,48v112h160v-112
	C328.416,350.32,306.928,328.832,280.416,328.832z"/>
<rect x="168.416" y="464.832" style="fill:#D3A06C;" width="160" height="24"/>
<path d="M496.416,160.832v-45.096L248.416,0l-248,115.736v45.096h32v96h-32v48h17.752l8,32h14.248v112H26.168l-8,32H0.416v16h496
	v-16h-17.752l-8-32h-14.248v-112h14.248l8-32h17.752v-48h-32v-96H496.416z M16.416,128.832h144v-16H44.472l203.944-95.168
	l203.944,95.168H336.416v16h144v16H290.344l23.336-40l-32.664-56h-65.184l-32.664,56l23.336,40H16.416V128.832z M225.008,144.832
	l-23.336-40l23.336-40h46.816l23.336,40l-23.336,40H225.008z M34.664,304.832h75.504l-4,16H38.664L34.664,304.832z M370.176,304.832
	l8,32h14.248v112h-14.256l-8,32h-33.752v-104c0-30.872-25.12-56-56-56h-64c-30.88,0-56,25.128-56,56v104h-33.76l-8-32h-14.24v-112
	h14.248l8-32H370.176z M256.416,336.832h24c22.056,0,40,17.944,40,40v104h-64V336.832z M240.416,480.832h-64v-104
	c0-22.056,17.944-40,40-40h24V480.832z M56.416,432.832h16v-16h-16v-48h16v-16h-16v-16h32v48h-16v16h16v48h-32V432.832z
	 M38.664,464.832h67.504l4,16H34.664L38.664,464.832z M462.168,480.832h-75.504l4-16h67.504L462.168,480.832z M440.416,352.832h-16
	v16h16v48h-16v16h16v16h-31.992v-48h15.992v-16h-15.992v-48h31.992V352.832z M458.168,320.832h-67.504l-4-16h75.504L458.168,320.832
	z M480.416,288.832h-464v-16h464V288.832z M448.416,256.832h-400v-96h400V256.832z"/>
<path d="M240.416,176.832h-80v64h80V176.832z M224.416,224.832h-48v-32h48V224.832z"/>
<path d="M336.416,176.832h-80v64h80V176.832z M320.416,224.832h-48v-32h48V224.832z"/>
<path d="M144.416,240.832v-64h-80v64H144.416z M80.416,192.832h48v32h-48V192.832z"/>
<path d="M432.416,176.832h-80v64h80V176.832z M416.416,224.832h-48v-32h48V224.832z"/>
<g>
</g>
<g>
</g>
<g>
</g>
<g>
</g>
<g>
</g>
<g>
</g>
<g>
</g>
<g>
</g>
<g>
</g>
<g>
</g>
<g>
</g>
<g>
</g>
<g>
</g>
<g>
</g>
<g>
</g>
</svg>
